<svg viewBox="0 0 50.236 8.686">
  <path d="M46.349 7.617a.84.84 0 01-.516-.31c-.056-.077-.247-.37-.425-.651-.24-.378-.338-.507-.379-.497-.03.008-.454.255-.941.55-1.452.88-1.364.848-2.376.867-.83.016-1.003-.007-1.05-.135-.039-.103-.013-.17.108-.283.058-.054.876-.561 1.817-1.127.942-.566 1.713-1.041 1.713-1.056 0-.015-.23-.377-.511-.805-.79-1.202-.773-1.174-.72-1.286a.476.476 0 01.195-.171c.145-.075.173-.077.869-.066.997.015.992.013 1.525.836.175.27.325.493.332.493.007 0 .412-.242.9-.538.488-.295.966-.573 1.061-.616.282-.129.694-.183 1.399-.183.682 0 .836.03.88.168.015.05.002.103-.041.162-.037.05-.8.53-1.756 1.107-.93.56-1.687 1.035-1.68 1.056.007.02.308.49.667 1.044s.655 1.038.655 1.076c0 .23-.202.318-.785.346-.24.011-.517.027-.618.034-.102.007-.247 0-.323-.015zm-8.313-.015c-.157-.058-.251-.16-.251-.273 0-.092 2.001-4.213 2.127-4.381.045-.06.16-.15.255-.2.163-.084.207-.09.702-.102.29-.007.594-.003.676.009.196.029.35.157.35.292 0 .13-2.052 4.31-2.179 4.437-.049.05-.162.125-.25.168-.145.07-.216.079-.729.089-.44.008-.598 0-.701-.039zm-5.88 0a.535.535 0 01-.258-.149c-.082-.092-.094-.132-.098-.346l-.025-1.394-.02-1.153-.697 1.398c-.683 1.371-.7 1.4-.852 1.496-.242.154-.338.17-1.001.157l-.613-.01-.097-.11c-.054-.06-.098-.14-.098-.177 0-.038.479-1.034 1.063-2.214 1.166-2.353 1.13-2.295 1.492-2.408.148-.047.312-.054 1.074-.046.792.01.913.017 1.022.072.25.124.243.082.254 1.557l.01 1.317 1.376-1.39c1.294-1.308 1.389-1.396 1.577-1.468.193-.074.244-.078 1.302-.088 1.265-.011 1.353.002 1.444.22l.049.118-.51 1.039c-1.265 2.583-1.661 3.352-1.763 3.425-.208.148-.339.18-.811.196-.251.009-.541.005-.644-.008-.24-.03-.386-.144-.386-.3 0-.07.211-.539.635-1.405.35-.714.632-1.31.626-1.327-.005-.016-.627.6-1.382 1.367-.974.99-1.42 1.422-1.539 1.486a1.606 1.606 0 01-1.129.145zM21.366 7.6c-.156-.056-.25-.159-.25-.272 0-.044.487-1.055 1.082-2.245 1-1.996 1.094-2.172 1.217-2.257.277-.192.2-.188 3.31-.187 2.71 0 2.866.004 2.995.063.09.04.151.096.18.164.038.094.032.125-.068.341-.139.301-.322.47-.592.546-.17.048-.45.055-2.255.055h-2.06l-.368.732 1.762.01c1.608.009 1.771.015 1.87.068.205.113.226.263.077.557a1.22 1.22 0 01-.24.317c-.256.219-.27.22-2.265.22h-1.79l-.383.769h1.996c1.198 0 2.042.013 2.11.032.163.047.27.16.27.282-.001.154-.24.56-.39.663-.266.183-.118.175-3.201.183-2.426.006-2.894 0-3.007-.04zm-8.296.019c-.126-.033-.262-.147-.294-.249-.016-.05.188-.488.742-1.598l.765-1.53h2.088l-1.073 2.145 1.197-.016c1.053-.014 1.234-.025 1.513-.086.37-.082.726-.248.945-.44.286-.252.637-.869.727-1.277.082-.372-.05-.556-.486-.682-.179-.052-.46-.06-2.622-.076-2.557-.02-2.573-.021-2.573-.172 0-.12.196-.456.385-.66.318-.344.135-.323 2.84-.323 2.068 0 2.383.007 2.73.06 1.244.188 1.838.594 1.888 1.29.044.608-.423 1.574-1.076 2.226-.752.752-1.694 1.15-3.167 1.338-.318.04-.854.055-2.414.065-1.102.007-2.054 0-2.115-.016zM.035 8.622A.289.289 0 010 8.523c0-.029 3.824-4.412 4.281-4.908.206-.223.247-.206.391.162.097.248.103.281.061.365-.025.05-.313.56-.64 1.133-.327.572-.587 1.048-.577 1.057.023.023 2.658-1.606 2.777-1.717a.583.583 0 00.2-.477c0-.229.096-.061-1.24-2.163-.58-.912-1.07-1.698-1.089-1.748-.028-.073-.023-.103.028-.159.054-.06.101-.068.392-.068.21 0 .37.017.444.048.064.026 1.206.968 2.54 2.092 1.88 1.585 2.44 2.075 2.494 2.18.2.392-.112.895-.757 1.22-.11.056-1.17.476-2.356.935-1.185.46-2.876 1.115-3.758 1.459-.882.343-1.715.653-1.851.688-.192.05-.364.064-.76.064-.47 0-.513-.005-.545-.065z"></path>
</svg>